<svg id="Layer_1" enable-background="new 0 0 496.197 496.197" height="512" viewBox="0 0 496.197 496.197" width="512" xmlns="http://www.w3.org/2000/svg"><path d="m370.283 134.103h-267.89c-7.43 0-13.87 5.15-15.54 12.42l-9.15 40c-2.29 10.02 5.289 19.58 15.539 19.58h319.908c-44.228-74.534-41.326-69.75-42.867-72z" fill="#ade4f9"/><path d="m464.185 291.103c-8.81 0-15.95-7.16-15.95-16s7.12-16 15.95-16h29.49c-8.29-30.61-36.38-53-69.52-53h-122v-72h68.128c-13.87-20.58-37.248-33-62.128-33-241.89 0-227.03-.05-229 .08-20.18.99-38.34 12.93-47.29 31.28-35.932 73.841-31.712 132.227-31.712 181.03 0 13.31 10.75 24.1 24 24.1l40.009 1.01c.25-30.59 25.141-55.5 55.991-55.5 30.93 0 55.999 25.07 55.999 56h120c0-30.93 25.061-56 56.001-56 30.937 0 55.999 25.071 55.999 56h64.001c13.25 0 24.001-10.79 24.001-24.1v-23.9zm-304.03-85h-66.912c-10.25 0-17.829-9.56-15.539-19.58l9.15-40c1.67-7.27 8.11-12.42 15.54-12.42h57.761zm126 0h-110v-72h110z" fill="#e7ebf2"/><path d="m370.283 134.103h-267.89c-7.43 0-13.87 5.15-15.54 12.42l-9.15 40c-1.08 4.71.031 9.32 2.571 12.88-24.086-4.261-45.997-17.205-61.19-36.78 3.28-8.997 3.273-8.264 3.07-8.34l-5.84-34.51c-1.652-9.764 5.872-18.67 15.776-18.67h276.065c24.88 0 48.258 12.42 62.128 33z" fill="#f5f7fa"/><g fill="#afb8c4"><path d="m165.4 306.103h141.5c-6.76 9.25-10.749 20.66-10.749 33h-120c.001-12.34-3.991-23.75-10.751-33z"/><path d="m78.43 301.763c-8.79 9.81-14.149 22.71-14.269 36.84l-40.009-1.01c-13.25 0-24-10.79-24-24.1 0-28.42-.512-48.9 1.068-69.49l3.97 5.83c17.58 25.84 43.73 44.07 73.24 51.93z"/><path d="m496.154 306.103v8.9c0 13.31-10.751 24.1-24.001 24.1h-64.001c0-12.34-3.989-23.75-10.749-33z"/></g><path d="m352.153 283.103c30.93 0 55.999 25.07 55.999 56s-25.071 56-56.001 56-55.999-25.07-55.999-56 25.071-56 56.001-56zm7.997 56c0-4.42-3.58-8-8-8s-8 3.58-8 8 3.58 8 8 8 8-3.58 8-8z" fill="#414754"/><path d="m385.23 159.053-19.92 47.05h-50l30.49-72h24.482c1.45 2.115.96 1.374 14.948 24.95z" fill="#d6f7ff"/><path d="m153.895 134.103-30.49 72h-30l30.49-72z" fill="#d6f7ff"/><path d="m276.825 134.103-30.49 72c-37.255 0-36.518.279-39.7-.71l30.19-71.29z" fill="#d6f7ff"/><path d="m120.153 283.103c30.93 0 55.999 25.07 55.999 56s-25.071 56-56.001 56c-32.405 0-56.967-27.402-55.989-56.5 1.032-30.684 25.231-55.5 55.991-55.5zm7.997 56c0-4.42-3.58-8-8-8s-8 3.58-8 8 3.58 8 8 8 8-3.58 8-8z" fill="#414754"/><path d="m248.15 254.103h-16c-4.418 0-8-3.582-8-8s3.582-8 8-8h16c4.418 0 8 3.582 8 8s-3.581 8-8 8z" fill="#fff"/><path d="m120.15 355.103c-8.822 0-16-7.177-16-16s7.178-16 16-16 16 7.177 16 16-7.177 16-16 16zm0-16.011v.011z" fill="#292d31"/><path d="m352.15 355.103c-8.822 0-16-7.177-16-16s7.178-16 16-16 16 7.177 16 16-7.177 16-16 16zm0-16.011v.011z" fill="#292d31"/><path d="m40.155 246.103c0 4.42-3.59 8-8 8 0 0-31.39 0-31.54-.01.24-5.37.61-10.65 1.13-15.99h30.41c4.41 0 8 3.58 8 8z" fill="#e05a7f"/><path d="m32.155 278.103c0 4.42-3.59 8-8 8h-24.08c-.01-5.58.01-10.88.07-16h24.01c4.41 0 8 3.58 8 8z" fill="#fff"/><path d="m496.154 291.103h-31.969c-8.81 0-15.95-7.16-15.95-16s7.12-16 15.95-16h29.49c3.056 11.261 2.479 19.097 2.479 32z" fill="#fac560"/></svg>