<?xml version="1.0" encoding="iso-8859-1"?>
<!-- Generator: Adobe Illustrator 19.0.0, SVG Export Plug-In . SVG Version: 6.00 Build 0)  -->
<svg version="1.1" id="Capa_1" xmlns="http://www.w3.org/2000/svg" xmlns:xlink="http://www.w3.org/1999/xlink" x="0px" y="0px"
	 viewBox="0 0 470.166 470.166" style="enable-background:new 0 0 470.166 470.166;" xml:space="preserve">
<path style="fill:#EBF0F3;" d="M74.302,205.424c-31.844,0-58.693,19.98-69.307,47.454C1.873,260.995,0,270.361,0,279.727h432.078
	V230.4c0-13.737-11.239-24.976-24.976-24.976L74.302,205.424L74.302,205.424z"/>
<path style="fill:#D5D6DB;" d="M432.078,240.39v49.327H0c0-9.366,1.873-18.732,4.995-26.849
	c10.615-27.473,37.463-47.454,69.307-47.454h332.8C420.839,215.415,432.078,226.654,432.078,240.39z"/>
<path style="fill:#3A556A;" d="M470.166,290.341c0-28.098-22.478-51.2-51.2-51.2c-28.098,0-51.2,22.478-51.2,51.2"/>
<path style="fill:#E1E6E9;" d="M271.61,209.171l-8.117-30.595c-3.122-12.488-13.737-21.229-26.224-22.478l-136.741-16.859
	c-20.605,0-36.839,16.859-36.839,36.839l-6.868,33.093L271.61,209.171L271.61,209.171z"/>
<g>
	<path style="fill:#27A2DB;" d="M259.746,209.171l-7.493-18.107c-7.493-17.483-24.351-29.346-43.707-29.346h-32.468v47.454
		L259.746,209.171L259.746,209.171z"/>
	<path style="fill:#27A2DB;" d="M167.961,209.171v-47.454h-49.327c-17.483,0-31.22,13.737-31.22,31.22v16.234H167.961z"/>
</g>
<path style="fill:#2F4859;" d="M287.844,250.381c0,21.229,17.483,38.712,38.712,38.712s38.712-17.483,38.712-38.712
	s-17.483-38.712-38.712-38.712C304.702,211.668,287.844,229.151,287.844,250.381z"/>
<path style="fill:#64798A;" d="M301.58,250.381c0,13.737,11.239,24.976,24.976,24.976c13.737,0,24.351-11.239,24.351-24.976
	c0-13.737-11.239-24.351-24.351-24.351C312.819,226.029,301.58,236.644,301.58,250.381z"/>
<path style="fill:#EBF0F3;" d="M301.58,250.381c0,1.873,0,3.746,0.624,5.62c3.122-0.624,6.868,0,8.741,3.746
	c1.873,3.122,1.249,6.868-1.249,9.366c2.498,2.498,5.62,4.371,9.366,5.62c1.249-3.122,3.746-5.62,7.493-5.62
	c3.746,0,6.244,2.498,7.493,6.244c3.746-1.249,6.868-3.122,9.366-5.62c-2.498-2.498-3.122-6.244-1.249-9.366s5.62-4.371,8.741-3.746
	c0.624-1.873,0.624-3.746,0.624-5.62c0-1.873,0-3.746-0.624-5.62c-3.122,0.624-6.868,0-8.741-3.122
	c-1.873-3.122-1.249-6.868,1.249-9.366c-2.498-2.498-5.62-4.371-9.366-5.62c-1.249,3.122-3.746,6.244-7.493,6.244
	s-6.244-2.498-7.493-5.62c-3.746,1.249-6.868,3.122-9.366,5.62c2.498,2.498,3.122,6.244,1.249,9.366s-5.62,4.371-8.741,3.122
	C301.58,246.634,301.58,248.507,301.58,250.381z"/>
<path style="fill:#64798A;" d="M104.898,289.717H0c0-9.366,1.873-18.732,4.995-26.849c9.366-15.61,26.224-26.849,46.205-26.849
	C80.546,236.02,104.898,259.746,104.898,289.717z"/>
<path style="fill:#2F4859;" d="M9.99,289.717c0,23.102,18.732,41.21,41.21,41.21c23.102,0,41.21-18.732,41.21-41.21
	c0-23.102-18.732-41.21-41.21-41.21C28.098,247.883,9.99,266.615,9.99,289.717z"/>
<path style="fill:#64798A;" d="M24.976,289.093c0,14.361,11.863,26.849,26.849,26.849c14.361,0,26.224-11.863,26.224-26.849
	c0-14.361-11.863-26.224-26.224-26.224C36.839,262.868,24.976,274.732,24.976,289.093z"/>
<path style="fill:#EBF0F3;" d="M24.976,289.093c0,1.873,0,4.371,0.624,6.244c3.746-0.624,7.493,0,9.366,3.746
	c1.873,3.122,1.249,7.493-1.249,9.99c3.122,2.498,6.244,4.371,9.99,5.62c1.249-3.746,3.746-6.244,8.117-6.244
	c3.746,0,6.868,2.498,8.117,6.244c3.746-1.249,7.493-3.122,9.99-6.244c-2.498-2.498-3.122-6.244-1.249-9.99
	c1.873-3.122,5.62-4.371,9.366-3.746c0.624-1.873,0.624-3.746,0.624-6.244c0-1.873,0-3.746-0.624-5.62
	c-3.746,0.624-7.493,0-9.366-3.746c-1.873-3.122-1.249-7.493,1.249-9.99c-3.122-2.498-6.244-4.371-9.99-5.62
	c-1.249,3.746-3.746,6.244-8.117,6.244c-3.746,0-6.868-2.498-8.117-6.244c-3.746,1.249-7.493,3.122-9.99,5.62
	c2.498,2.498,3.746,6.868,1.873,9.99c-1.873,3.122-5.62,4.371-9.366,3.746C24.976,285.346,24.976,287.22,24.976,289.093z"/>
<path style="fill:#2F4859;" d="M380.254,290.341c0,21.229,17.483,38.712,38.712,38.712c21.229,0,38.712-17.483,38.712-38.712
	s-17.483-38.712-38.712-38.712C397.737,251.629,380.254,269.112,380.254,290.341z"/>
<path style="fill:#64798A;" d="M393.99,290.341c0,13.737,11.239,24.976,24.976,24.976c13.737,0,24.351-11.239,24.351-24.976
	c0-13.737-10.615-24.351-24.351-24.351C405.229,265.99,393.99,276.605,393.99,290.341z"/>
<path style="fill:#EBF0F3;" d="M393.99,290.341c0,1.873,0,3.746,0.624,5.62c3.122-0.624,6.868,0,8.741,3.746
	c1.873,3.122,1.249,6.868-1.249,9.366c2.498,2.498,5.62,4.371,9.366,5.62c1.249-3.122,3.746-5.62,7.493-5.62
	c3.746,0,6.244,2.498,7.493,6.244c3.746-1.249,6.868-3.122,9.366-5.62c-2.498-2.498-3.122-6.244-1.249-9.366s5.62-4.371,8.741-3.746
	c0.624-1.873,0.624-3.746,0.624-5.62c0-1.873,0-3.746-0.624-5.62c-3.122,0.624-6.868,0-8.741-3.122s-1.249-6.868,1.249-9.366
	c-2.498-2.498-5.62-4.371-9.366-5.62c-1.249,3.122-3.746,6.244-7.493,6.244c-3.746,0-6.244-2.498-7.493-5.62
	c-3.746,1.249-6.868,3.122-9.366,5.62c2.498,2.498,3.122,6.244,1.249,9.366s-5.62,4.371-8.741,3.122
	C394.615,286.595,393.99,288.468,393.99,290.341z"/>
<g>
	<path style="fill:#3A556A;" d="M226.029,226.654v9.366c-3.746,2.498-7.493,3.746-11.239,3.746c-3.746,0-7.493-1.249-11.239-3.746
		v-9.366C211.044,232.273,218.537,232.273,226.029,226.654z"/>
	<path style="fill:#3A556A;" d="M119.259,226.654v9.366c3.746,2.498,7.493,3.746,11.239,3.746c3.746,0,7.493-1.249,11.239-3.746
		v-9.366C134.244,232.273,126.751,232.898,119.259,226.654z"/>
</g>
<g>
</g>
<g>
</g>
<g>
</g>
<g>
</g>
<g>
</g>
<g>
</g>
<g>
</g>
<g>
</g>
<g>
</g>
<g>
</g>
<g>
</g>
<g>
</g>
<g>
</g>
<g>
</g>
<g>
</g>
</svg>
