<svg height="512" viewBox="0 0 64 64" width="512" xmlns="http://www.w3.org/2000/svg"><g id="Filled_outline" data-name="Filled outline"><path d="m47 28-7.172-7.172a9.656 9.656 0 0 0 -6.828-2.828h-22l-8 14v12h58v-9a4.278 4.278 0 0 0 -3-4z" fill="#5f79ba"/><path d="m11 18h-8l5.179 4.937z" fill="#415c93"/><path d="m55 33a4 4 0 0 0 4 4h2v-2a4.278 4.278 0 0 0 -3-4l-3-.818z" fill="#fcf05a"/><path d="m23 30h-14l4-8h10z" fill="#cdeef6"/><path d="m43 30h-20v-8h11a2.856 2.856 0 0 1 2 1z" fill="#92cdde"/><path d="m43 30-4-4-4 4z" fill="#cdeef6"/><circle cx="13" cy="44" fill="#394d5c" r="6"/><circle cx="51" cy="44" fill="#394d5c" r="6"/><g fill="#fcf05a"><circle cx="13" cy="44" r="2"/><circle cx="51" cy="44" r="2"/><path d="m3 32h2a2 2 0 0 1 2 2v2a2 2 0 0 1 -2 2h-2a0 0 0 0 1 0 0v-6a0 0 0 0 1 0 0z"/></g><path d="m13 41a3 3 0 1 0 3 3 3 3 0 0 0 -3-3zm0 4a1 1 0 1 1 1-1 1 1 0 0 1 -1 1z"/><path d="m51 41a3 3 0 1 0 3 3 3 3 0 0 0 -3-3zm0 4a1 1 0 1 1 1-1 1 1 0 0 1 -1 1z"/><path d="m58.263 30.035-10.743-2.93-6.983-6.982a10.734 10.734 0 0 0 -7.537-3.123h-.5l-2.7-3.6-1.6 1.2 1.8 2.4h-27a1 1 0 0 0 -.69 1.724l4.612 4.4-4.79 8.376a.993.993 0 0 0 -.132.5v12a1 1 0 0 0 1 1h3.08a6.991 6.991 0 0 0 13.84 0h24.16a6.991 6.991 0 0 0 13.84 0h3.08a1 1 0 0 0 1-1v-9a5.241 5.241 0 0 0 -3.737-4.965zm-52.763-11.035h3.777l-1.333 2.332zm-1.5 14h1a1 1 0 0 1 1 1v2a1 1 0 0 1 -1 1h-1zm9 16a5 5 0 1 1 5-5 5.006 5.006 0 0 1 -5 5zm38 0a5 5 0 1 1 5-5 5.006 5.006 0 0 1 -5 5zm9-6h-2.08a6.991 6.991 0 0 0 -13.84 0h-24.16a6.991 6.991 0 0 0 -13.84 0h-2.08v-4h1a3 3 0 0 0 2.943-2.437 8.91 8.91 0 0 1 5.057-1.563 8.764 8.764 0 0 1 8.083 5.4 1 1 0 0 0 .917.6h7v-2h-6.366a10.7 10.7 0 0 0 -9.634-6 10.913 10.913 0 0 0 -5 1.2v-.2a3 3 0 0 0 -3-3h-.277l6.857-12h21.42a8.72 8.72 0 0 1 6.123 2.537l7.17 7.17a1 1 0 0 0 .444.258l7.263 1.981v2.054a5.006 5.006 0 0 0 5 5h1zm0-7h-1a3 3 0 0 1 -3-3v-1.509l1.726.471a3.29 3.29 0 0 1 2.274 3.038z"/><path d="m21 33h2v2h-2z"/><path d="m25 33h4v2h-4z"/><path d="m36.707 22.293a3.791 3.791 0 0 0 -2.707-1.293h-21a1 1 0 0 0 -.895.553l-4 8a1 1 0 0 0 .895 1.447h33.586l1.707 1.707a3.3 3.3 0 0 1 .707 2.293v1h2v-1a5.323 5.323 0 0 0 -1.293-3.707zm-14.707 6.707h-11.382l3-6h8.382zm2 0v-6h10a1.893 1.893 0 0 1 1.293.707l2.293 2.293-3 3zm13.414 0 1.586-1.586 1.586 1.586z"/><path d="m49 33h2v2h-2z"/><path d="m31 39h12v2h-12z"/></g></svg>