<svg height="512" viewBox="0 0 64 64" width="512" xmlns="http://www.w3.org/2000/svg"><g id="flat"><path d="m51 27v-11h-12v23h22v-10z" fill="#dd3e46"/><path d="m43 20h8v10h-8z" fill="#50b4f8"/><path d="m55 34h6v-5l-6-1.2z" fill="#fcf05a"/><path d="m42 33h4v2h-4z" fill="#f4f4e6"/><path d="m3 39h58v4h-58z" fill="#7d8d9c"/><path d="m45 12a2 2 0 0 1 2 2v2a0 0 0 0 1 0 0h-4a0 0 0 0 1 0 0v-2a2 2 0 0 1 2-2z" fill="#fcf05a"/><path d="m9 16h26v23h-26z" fill="#dd3e46"/><path d="m35 21h4v18h-4z" fill="#f9bb4b"/><g fill="#ffd782"><path d="m28 20h2v5h-2z"/><path d="m24 20h2v5h-2z"/><path d="m20 20h2v5h-2z"/><path d="m16 20h2v5h-2z"/><path d="m12 20h2v5h-2z"/><path d="m4 20h2v5h-2z"/></g><circle cx="26" cy="32" fill="#f98c96" r="5"/><path d="m26 34a2 2 0 1 1 2-2 2 2 0 0 1 -2 2z" fill="#f4f4e6"/><path d="m13 29h4v4h-4z" fill="#fcf05a"/><path d="m13 33h4v6h-4z" fill="#f4f4e6"/><path d="m5 35h4v4h-4z" fill="#fcf05a"/><path d="m33 16h-8v-2l8-2z" fill="#b11e48"/><path d="m21 16h-10v-1l10-3z" fill="#b11e48"/><path d="m48 33h2v2h-2z" fill="#f4f4e6"/><circle cx="50" cy="45" fill="#394d5c" r="6"/><circle cx="50" cy="45" fill="#fcf05a" r="2"/><circle cx="15" cy="45" fill="#394d5c" r="6"/><circle cx="15" cy="45" fill="#fcf05a" r="2"/><path d="m2 19h30v2h-30z" fill="#f9bb4b"/><path d="m2 24h30v2h-30z" fill="#f9bb4b"/></g></svg>