<svg height="512" viewBox="0 0 64 64" width="512" xmlns="http://www.w3.org/2000/svg"><g id="flat"><path d="m29 27h-20v-4l2-10h18z" fill="#d3843d"/><path d="m3 23h6v16h-6z" fill="#394d5c"/><g fill="#7d8d9c"><path d="m3 26h3v2h-3z"/><path d="m3 30h3v2h-3z"/><path d="m3 34h3v2h-3z"/></g><circle cx="22" cy="44" fill="#394d5c" r="7"/><circle cx="22" cy="44" fill="#fcf05a" r="3"/><circle cx="52" cy="44" fill="#394d5c" r="7"/><circle cx="52" cy="44" fill="#fcf05a" r="3"/><path d="m59 26-14-2-5-11h-11v14h-20v15h3l3-5h14l3 5h8l5-9h14z" fill="#5f79ba"/><path d="m25 23h-12v-2l1-4h11z" fill="#ffd782"/><path d="m40 13h-11v24l3 5h8l5-9v-9z" fill="#4d6caa"/><path d="m41 24h-8v-7h5z" fill="#f4f4e6"/><path d="m32 27h5v2h-5z" fill="#f4f4e6"/><path d="m13 27h4v6h-4z" fill="#4d6caa"/><path d="m24 30h2v2h-2z" fill="#195c85"/><path d="m20 30h2v2h-2z" fill="#195c85"/><path d="m33 37h6v2h-6z" fill="#f4f4e6"/><path d="m40 42h5l3-5h13v-4h-16z" fill="#195c85"/><path d="m55 29h4a0 0 0 0 1 0 0v4a0 0 0 0 1 0 0h-6a0 0 0 0 1 0 0v-2a2 2 0 0 1 2-2z" fill="#fcf05a"/></g></svg>