<svg height="512" viewBox="0 0 64 64" width="512" xmlns="http://www.w3.org/2000/svg"><g id="flat"><path d="m42 21a4.22 4.22 0 0 0 -4-2h-15c-3.03 0-4.645 1.29-6 4l-4 8h36z" fill="#f9bb4b"/><path d="m49 31h-36l-10 3v9h58v-7z" fill="#fcf05a"/><path d="m21 23h10v8h-14z" fill="#50b4f8"/><path d="m39 23h-8v8h13z" fill="#2d75bb"/><path d="m3 37h2a3 3 0 0 1 3 3v3a0 0 0 0 1 0 0h-5a0 0 0 0 1 0 0v-6a0 0 0 0 1 0 0z" fill="#e97424"/><path d="m3 43h58v4h-58z" fill="#50b4f8"/><path d="m57 39h4v-3l-6-2.5v3.5a2 2 0 0 0 2 2z" fill="#e97424"/><path d="m23 13h14v6h-14z" fill="#e97424"/><g fill="#394d5c"><path d="m20 34h2v2h-2z"/><path d="m22 36h2v2h-2z"/><path d="m24 34h2v2h-2z"/><path d="m26 36h2v2h-2z"/><path d="m30 36h2v2h-2z"/><path d="m28 34h2v2h-2z"/><path d="m32 34h2v2h-2z"/><path d="m34 36h2v2h-2z"/><path d="m36 34h2v2h-2z"/><path d="m38 36h2v2h-2z"/><path d="m40 34h2v2h-2z"/><circle cx="18" cy="45" r="6"/></g><circle cx="18" cy="45" fill="#f4f4e6" r="2"/><circle cx="46" cy="45" fill="#394d5c" r="6"/><circle cx="46" cy="45" fill="#f4f4e6" r="2"/></g></svg>