<svg id="Layer_1" enable-background="new 0 0 512 512" height="512" viewBox="0 0 512 512" width="512" xmlns="http://www.w3.org/2000/svg"><g><g><path d="m489.501 261.565v126.81h-467v-126.81l30-136.8h367z" fill="#f9ef63"/></g><g><path d="m463.133 356.215c-13.399-15.836-33.418-25.89-55.792-25.89-22.367 0-42.384 10.054-55.782 25.89h-191.116c-13.399-15.836-33.418-25.89-55.792-25.89-22.367 0-42.384 10.054-55.782 25.89h-26.368v32.16h467v-32.16z" fill="#f4dd45"/></g><g><path d="m489.501 261.565h-467l30-136.8h367z" fill="#10e881"/></g><g><path d="m419.5 124.764v-15.331c0-8.103-6.569-14.671-14.671-14.671h-337.658c-8.103 0-14.671 6.569-14.671 14.671v15.331z" fill="#ff6536"/></g><g><g><path d="m459.933 291.355h29.567v39.675h-29.567z" fill="#ffad1d"/></g><g><path d="m22.5 291.355h29.567v39.675h-29.567z" fill="#ff6536"/></g></g><g><g><path d="m7.5 388.371h497v30h-497z" fill="#d2d1d3"/></g><g><path d="m7.5 403.371h497v15h-497z" fill="#b1aeb5"/></g></g><g><g><path d="m151.811 403.375c0 26.04-21.11 47.15-47.16 47.15-5.24 0-10.28-.86-14.99-2.44-18.69-6.26-32.16-23.91-32.16-44.71 0-20.81 13.47-38.46 32.16-44.72 4.71-1.58 9.75-2.44 14.99-2.44 26.05 0 47.16 21.11 47.16 47.16z" fill="#69676d"/></g><g><path d="m151.811 403.375c0 26.04-21.11 47.15-47.16 47.15-5.24 0-10.28-.86-14.99-2.44 18.69-6.26 32.15-23.91 32.15-44.71s-13.46-38.46-32.15-44.72c4.71-1.58 9.75-2.44 14.99-2.44 26.05 0 47.16 21.11 47.16 47.16z" fill="#504e54"/></g></g><g><g><path d="m454.5 403.375c0 26.04-21.11 47.15-47.16 47.15-5.24 0-10.28-.86-14.99-2.44-18.69-6.26-32.16-23.91-32.16-44.71 0-20.81 13.47-38.46 32.16-44.72 4.71-1.58 9.75-2.44 14.99-2.44 26.05 0 47.16 21.11 47.16 47.16z" fill="#69676d"/></g><g><path d="m454.5 403.375c0 26.04-21.11 47.15-47.16 47.15-5.24 0-10.28-.86-14.99-2.44 18.69-6.26 32.15-23.91 32.15-44.71s-13.46-38.46-32.15-44.72c4.71-1.58 9.75-2.44 14.99-2.44 26.05 0 47.16 21.11 47.16 47.16z" fill="#504e54"/></g></g><g><g><path d="m434.703 154.477h-40.106v77.12h79.568z" fill="#80fcff"/></g><g><path d="m28.748 231.78h49.568v-77.121h-32.372z" fill="#80fcff"/></g><g><path d="m108.311 154.655h63.33v77.12h-63.33z" fill="#80fcff"/></g><g><path d="m204.491 154.475h63.33v77.12h-63.33z" fill="#80fcff"/></g><g><path d="m301.026 154.659h63.33v77.12h-63.33z" fill="#80fcff"/></g></g><g><path d="m267.821 154.475v16.97l-60.15 60.15h-3.18v-35.7l41.42-41.42z" fill="#d4ffff"/></g><g><path d="m364.356 154.66v16.97l-60.15 60.15h-3.18v-35.7l41.42-41.42z" fill="#d4ffff"/></g><g><path d="m171.641 154.655v16.95l-60.17 60.17h-3.16v-35.72l41.4-41.4z" fill="#d4ffff"/></g></g><g><g><path d="m504.5 380.871h-7.5v-119.304c0-1.188-.282-2.359-.823-3.417l-69.177-135.193v-13.523c0-12.226-9.946-22.171-22.171-22.171h-17.829v-18.289h12.5c4.143 0 7.5-3.358 7.5-7.5s-3.357-7.5-7.5-7.5h-327c-4.143 0-7.5 3.358-7.5 7.5s3.357 7.5 7.5 7.5h12.5v18.288h-17.829c-12.225 0-22.171 9.946-22.171 22.171v14.517l-29.826 136.011c-.115.528-.174 1.066-.174 1.606v119.303h-7.5c-4.143 0-7.5 3.358-7.5 7.5v30c0 4.142 3.357 7.5 7.5 7.5h47.348c8.593 18.945 27.686 32.155 49.807 32.155s41.214-13.21 49.807-32.155h203.076c8.593 18.945 27.686 32.155 49.807 32.155s41.214-13.21 49.807-32.155h47.348c4.143 0 7.5-3.358 7.5-7.5v-30c0-4.141-3.357-7.499-7.5-7.499zm-22.5-57.34h-14.567v-24.675h14.567zm-20.098-99.434h-59.806v-62.121h28.02zm-89.902-136.835h-56.671v-18.288h56.671zm-200.171 0v-18.288h56.829v18.288zm71.829-18.288h56.671v18.288h-56.671zm-143.658 0h56.829v18.288h-56.829zm-48.022 93.185h18.839v62.12h-32.462zm-21.978 136.696h14.567v24.675h-14.567zm-15 112.016v-15h35.513c-.338 2.452-.513 4.956-.513 7.5s.175 5.048.513 7.5zm89.655 32.155c-21.866 0-39.655-17.789-39.655-39.655s17.789-39.655 39.655-39.655c17.395 0 32.209 11.258 37.541 26.87.035.114.073.227.114.339 1.298 3.916 2.001 8.101 2.001 12.447 0 21.865-17.79 39.654-39.656 39.654zm54.143-32.155c.338-2.452.513-4.956.513-7.5s-.175-5.048-.513-7.5h126.711c4.143 0 7.5-3.358 7.5-7.5s-3.357-7.5-7.5-7.5h-131.047c-8.593-18.945-27.686-32.155-49.807-32.155s-41.214 13.21-49.807 32.155h-24.848v-42.34h22.067c4.143 0 7.5-3.358 7.5-7.5v-39.675c0-4.142-3.357-7.5-7.5-7.5h-22.067v-14.788h74.655c4.143 0 7.5-3.358 7.5-7.5s-3.357-7.5-7.5-7.5h-72.832l3.243-14.788h43.25c4.143 0 7.5-3.358 7.5-7.5v-77.12c0-4.142-3.357-7.5-7.5-7.5h-23.05l3.266-14.895h271.158c4.143 0 7.5-3.358 7.5-7.5s-3.357-7.5-7.5-7.5h-269.69v-7.831c0-3.954 3.217-7.171 7.171-7.171h337.658c3.954 0 7.171 3.217 7.171 7.171v7.831h-47.645c-4.143 0-7.5 3.358-7.5 7.5s3.357 7.5 7.5 7.5h50.558l7.528 14.712h-27.844c-4.143 0-7.5 3.358-7.5 7.5v77.121c0 4.142 3.357 7.5 7.5 7.5h74.981l7.66 14.97h-337.872c-4.143 0-7.5 3.358-7.5 7.5s3.357 7.5 7.5 7.5h342.634v14.788h-22.067c-4.143 0-7.5 3.358-7.5 7.5v39.675c0 4.142 3.357 7.5 7.5 7.5h22.067v42.34h-24.848c-8.593-18.945-27.686-32.155-49.807-32.155s-41.214 13.21-49.807 32.155h-37.44c-4.143 0-7.5 3.358-7.5 7.5s3.357 7.5 7.5 7.5h33.105c-.338 2.452-.513 4.956-.513 7.5s.175 5.048.513 7.5zm248.547 32.155c-21.866 0-39.655-17.789-39.655-39.655s17.789-39.655 39.655-39.655 39.655 17.788 39.655 39.655-17.789 39.655-39.655 39.655zm89.655-32.155h-35.513c.338-2.452.513-4.956.513-7.5s-.175-5.048-.513-7.5h35.513z"/></g><g><path d="m104.655 387.928c-4.143 0-7.5 3.358-7.5 7.5v15.885c0 4.142 3.357 7.5 7.5 7.5s7.5-3.358 7.5-7.5v-15.885c0-4.142-3.357-7.5-7.5-7.5z"/></g><g><path d="m407.345 387.928c-4.143 0-7.5 3.358-7.5 7.5v15.885c0 4.142 3.357 7.5 7.5 7.5s7.5-3.358 7.5-7.5v-15.885c0-4.142-3.358-7.5-7.5-7.5z"/></g><g><path d="m179.146 231.779v-77.12c0-4.142-3.357-7.5-7.5-7.5h-63.33c-4.143 0-7.5 3.358-7.5 7.5v77.12c0 4.142 3.357 7.5 7.5 7.5h63.33c4.143 0 7.5-3.358 7.5-7.5zm-15-7.5h-48.33v-62.12h48.33z"/></g><g><path d="m204.493 239.097h63.33c4.143 0 7.5-3.358 7.5-7.5v-77.121c0-4.142-3.357-7.5-7.5-7.5h-63.33c-4.143 0-7.5 3.358-7.5 7.5v77.121c0 4.142 3.358 7.5 7.5 7.5zm7.5-77.12h48.33v62.121h-48.33z"/></g><g><path d="m301.025 239.279h63.33c4.143 0 7.5-3.358 7.5-7.5v-77.12c0-4.142-3.357-7.5-7.5-7.5h-63.33c-4.143 0-7.5 3.358-7.5 7.5v77.12c0 4.142 3.358 7.5 7.5 7.5zm7.5-77.12h48.33v62.12h-48.33z"/></g></g></svg>