<?xml version="1.0" encoding="iso-8859-1"?>
<!-- Generator: Adobe Illustrator 19.0.0, SVG Export Plug-In . SVG Version: 6.00 Build 0)  -->
<svg version="1.1" id="Capa_1" xmlns="http://www.w3.org/2000/svg" xmlns:xlink="http://www.w3.org/1999/xlink" x="0px" y="0px"
	 viewBox="0 0 468.293 468.293" style="enable-background:new 0 0 468.293 468.293;" xml:space="preserve">
<path style="fill:#44C4A1;" d="M460.931,251.71l-3.524-20.204c-1.174-6.891-4.072-13.156-8.301-18.324
	c-7.44-9.241-18.794-15.036-31.324-15.036H343.39l-51.881-72.737H87.34L35.46,198.146H0v72.986
	c0,12.843,10.415,23.258,23.336,23.258h444.956L460.931,251.71z"/>
<path style="fill:#3EA69B;" d="M0.209,273.201c1.063,11.858,10.92,21.189,23.128,21.189h444.956l-3.655-21.189H0.209z"/>
<circle style="fill:#2F4859;" cx="375.508" cy="296.055" r="46.829"/>
<circle style="fill:#64798A;" cx="375.508" cy="296.055" r="31.594"/>
<g>
	<circle style="fill:#EBF0F3;" cx="375.508" cy="296.055" r="8.517"/>
	<path style="fill:#EBF0F3;" d="M381.984,267.961c-0.282,6.303-3.074,11.252-6.486,11.252c-3.398,0-6.19-4.949-6.472-11.252
		c2.087-0.451,4.258-0.677,6.472-0.677L381.984,267.961z"/>
	<path style="fill:#EBF0F3;" d="M360.219,271.609c4.258,4.656,5.783,10.13,3.37,12.543c-2.403,2.403-7.877,0.877-12.533-3.38
		c1.157-1.795,2.533-3.49,4.098-5.055L360.219,271.609z"/>
	<path style="fill:#EBF0F3;" d="M347.409,289.578c6.303,0.282,11.252,3.074,11.252,6.486c0,3.398-4.949,6.19-11.252,6.472
		c-0.451-2.087-0.677-4.258-0.677-6.472L347.409,289.578z"/>
	<path style="fill:#EBF0F3;" d="M351.056,311.343c4.656-4.258,10.13-5.783,12.543-3.37c2.403,2.403,0.877,7.877-3.38,12.533
		c-1.795-1.157-3.49-2.533-5.055-4.098L351.056,311.343z"/>
	<path style="fill:#EBF0F3;" d="M369.025,324.153c0.282-6.303,3.074-11.252,6.486-11.252c3.398,0,6.19,4.949,6.472,11.252
		c-2.087,0.451-4.258,0.677-6.472,0.677L369.025,324.153z"/>
	<path style="fill:#EBF0F3;" d="M390.79,320.506c-4.258-4.656-5.783-10.13-3.37-12.543c2.403-2.403,7.877-0.877,12.533,3.38
		c-1.157,1.795-2.533,3.49-4.098,5.055L390.79,320.506z"/>
	<path style="fill:#EBF0F3;" d="M403.6,302.537c-6.303-0.282-11.252-3.074-11.252-6.486c0-3.398,4.949-6.19,11.252-6.472
		c0.451,2.087,0.677,4.258,0.677,6.472L403.6,302.537z"/>
	<path style="fill:#EBF0F3;" d="M399.953,280.772c-4.656,4.258-10.13,5.783-12.543,3.37c-2.403-2.403-0.877-7.877,3.38-12.533
		c1.795,1.157,3.49,2.533,5.055,4.098L399.953,280.772z"/>
</g>
<circle style="fill:#2F4859;" cx="99.078" cy="296.055" r="46.829"/>
<circle style="fill:#64798A;" cx="99.078" cy="296.055" r="31.594"/>
<g>
	<circle style="fill:#EBF0F3;" cx="99.078" cy="296.055" r="8.517"/>
	<path style="fill:#EBF0F3;" d="M105.557,267.961c-0.282,6.303-3.074,11.252-6.486,11.252c-3.398,0-6.19-4.949-6.472-11.252
		c2.087-0.451,4.258-0.677,6.472-0.677L105.557,267.961z"/>
	<path style="fill:#EBF0F3;" d="M83.792,271.609c4.258,4.656,5.783,10.13,3.37,12.543c-2.403,2.403-7.877,0.877-12.533-3.38
		c1.157-1.795,2.532-3.49,4.098-5.055L83.792,271.609z"/>
	<path style="fill:#EBF0F3;" d="M70.981,289.578c6.303,0.282,11.252,3.074,11.252,6.486c0,3.398-4.949,6.19-11.252,6.472
		c-0.451-2.087-0.677-4.258-0.677-6.472L70.981,289.578z"/>
	<path style="fill:#EBF0F3;" d="M74.629,311.343c4.656-4.258,10.13-5.783,12.543-3.37c2.403,2.403,0.877,7.877-3.38,12.533
		c-1.795-1.157-3.49-2.533-5.055-4.098L74.629,311.343z"/>
	<path style="fill:#EBF0F3;" d="M92.598,324.153c0.282-6.303,3.074-11.252,6.486-11.252c3.398,0,6.19,4.949,6.472,11.252
		c-2.087,0.451-4.258,0.677-6.472,0.677L92.598,324.153z"/>
	<path style="fill:#EBF0F3;" d="M114.363,320.506c-4.258-4.656-5.783-10.13-3.37-12.543c2.403-2.403,7.877-0.877,12.533,3.38
		c-1.157,1.795-2.533,3.49-4.098,5.055L114.363,320.506z"/>
	<path style="fill:#EBF0F3;" d="M127.173,302.537c-6.303-0.282-11.252-3.074-11.252-6.486c0-3.398,4.949-6.19,11.252-6.472
		c0.451,2.087,0.677,4.258,0.677,6.472L127.173,302.537z"/>
	<path style="fill:#EBF0F3;" d="M123.526,280.772c-4.656,4.258-10.13,5.783-12.543,3.37c-2.403-2.403-0.877-7.877,3.38-12.533
		c1.795,1.157,3.49,2.533,5.055,4.098L123.526,280.772z"/>
	<path style="fill:#EBF0F3;" d="M460.931,251.711h-26.312c-10.572,0-19.265-8.614-19.265-19.265c0-10.65,8.692-19.264,19.265-19.264
		h14.487c4.229,5.168,7.127,11.433,8.301,18.324L460.931,251.711z"/>
</g>
<path style="fill:#CE412D;" d="M35.46,221.326v26.156c0,4.15-3.367,7.518-7.518,7.518H0v-41.191h27.942
	C32.092,213.808,35.46,217.176,35.46,221.326z"/>
<g>
	<polygon style="fill:#27A2DB;" points="92.295,136.131 117.824,136.131 117.824,202.068 44.604,202.068 	"/>
	<polygon style="fill:#27A2DB;" points="239.988,202.068 239.675,136.131 279.692,136.131 327.383,202.068 	"/>
	<polygon style="fill:#27A2DB;" points="228.086,202.068 133.408,202.068 133.408,136.131 227.85,136.131 	"/>
</g>
<g>
</g>
<g>
</g>
<g>
</g>
<g>
</g>
<g>
</g>
<g>
</g>
<g>
</g>
<g>
</g>
<g>
</g>
<g>
</g>
<g>
</g>
<g>
</g>
<g>
</g>
<g>
</g>
<g>
</g>
</svg>
